<?xml version="1.0" encoding="utf-8"?>
<!-- Generator: Adobe Illustrator 26.3.1, SVG Export Plug-In . SVG Version: 6.00 Build 0)  -->
<svg version="1.1" id="Layer_1" xmlns="http://www.w3.org/2000/svg" xmlns:xlink="http://www.w3.org/1999/xlink" x="0px" y="0px"
	 viewBox="0 0 300 150" style="enable-background:new 0 0 300 150;" xml:space="preserve">
<style type="text/css">
	.st0{fill:#151515;}
</style>
<g id="hoof">
	<g>
		<path class="st0" d="M70.8,32.3L70.8,32.3L70.8,32.3 M186.2,36.8L186.2,36.8L186.2,36.8 M82.9,48.6L82.9,48.6L82.9,48.6
			 M266.3,60.4L266.3,60.4L266.3,60.4 M279.4,61.6L279.4,61.6L279.4,61.6 M117.6,25.1c-4.5,0-9,0.7-13.4,2.1
			c-4.3,1.2-6.8,1.9-9.3,4.2c-1.7,1.5-2.2,2.6-4.2,3.6c-1.3,0.6-3.3,0.8-6.8,1c-1.9,0.1-3.3,0.2-4.3,0.2c-0.8,0-1.5-0.1-1.9-0.2
			c-2.7-1.1-2.5-3-5.2-4.2c-1-0.4-2.1-0.6-3-0.6c-2,0-3.7,0.7-3.7,1.1c0,0.3,0.9,0.3,2.7,1.3c1.2,0.7,2.4,1.5,3.5,2.5
			c2.4,1.9,2,1.8,2.8,2.3c1.4,0.7,2.9,1.1,4.5,1.1c0.3,0,0.7,0,1-0.1c2-0.1,3.2-0.6,4.1-0.6c0.4,0,0.7,0.1,1.1,0.4
			c0.5,0.4,0.8,1,0.8,1.7c-0.1,0.8-1.1,1.3-2.2,1.8c-1.6,0.7-3.2,1.6-4.7,2.6c-1.5,1.3-0.9,2.1-3.1,6.2c-0.6,1.4-1.5,2.6-2.5,3.8
			c-1.3,1.3-2.9,2-6.1,3.4c-4.3,1.8-4.7,1.4-6.6,2.7c-0.8,0.6-1.7,1-2.7,1.3c-0.9,0.3-1.8,0.4-2.7,0.4c-0.1,0-0.3,0-0.4,0
			c-0.4,0-0.7,0-1.1,0c-4.8,0-6.5,0.5-8,0.5c-0.7,0-1.3-0.1-2.1-0.4c-0.6-0.3-1.3-0.4-1.9-0.4c-0.4,0-0.8,0.1-1.2,0.2
			c-0.7,0.3-1.3,0.7-1.8,1.3c-1.3,1.6-2.5,3.3-3.4,5.2c-1.6,2.8-4,5.2-6.9,6.8c-0.5,0.3-4.4,2.3-5.4,3.8c-0.2,0.4-0.4,0.8-0.5,1.3
			c-0.1,0.8,0.1,1,0,1.6c0,0.2-0.2,0.7-1.9,2c-1.5,1.2-2,1.2-2.2,1.9c-0.1,0.6-0.1,1.2,0,1.7c0,1.1,0.1,1.3,0.3,1.4
			c0.2,0.1,0.4,0.2,0.6,0.2c0.5,0,1.2-0.3,1.2-0.3c0.9-0.5,1.5-1.2,1.9-2.1c0.1-0.1,1.6-1.8,4.8-5.1c10.8-11.8,12.9-12.7,13.6-14
			c0.2-0.4,0.5-0.7,0.9-0.8c0,0,0,0,0.1,0c0.4,0,0.9,0.2,1.2,0.5c0.6,0.5,1.3,0.6,2.3,0.6c0.8,0,1.8-0.1,2.9-0.2
			c6.1-0.5,6,0.1,8.7-0.6c1.4-0.4,2.7-0.8,4-1.4c1.8-1,3.7-1.7,5.7-2.2c0.6-0.1,1.1-0.2,1.4-0.2c0.5,0,0.8,0.1,1.1,0.4
			c0.4,0.5,0.5,1.3,0.3,1.9c-0.4,0.8-1.1,1.3-1.9,1.6c-3.9,1.5-15,5.1-15.3,5.2c-0.9,0.3-1.8,0.6-2.7,1.1s-1,0.8-1.7,1
			c-0.3,0.1-0.7,0.1-1,0.1c-0.6,0-1.1-0.1-1.6-0.3c-0.6-0.2-0.8-0.4-1.2-0.4c-0.5,0.1-1.1,0.3-1.4,0.7c-1.2,1.1-2.1,2.3-2.9,3.7
			c-2.3,4.8-7.6,8.4-7.9,8.6c-1.2,0.6-2.1,1.5-2.7,2.7c-0.3,0.9-0.6,1.9-1,2.8c-0.4,0.7-0.6,0.8-1.2,1.9c-0.4,0.7-0.4,0.9-0.9,1.7
			c-0.4,1-1,2-1.6,2.9c-0.9,1.1-1.6,1.2-1.9,2.2c-0.1,0.4-0.2,0.8-0.2,1.2c-0.1,0.6,0,1.1,0.2,1.6s0.5,0.8,1,1
			c0.2,0,0.3,0.1,0.5,0.1c0.6,0,1.2-0.2,1.6-0.7c0.5-0.4,0.8-1,1-1.6c0.4-0.8,0.7-1.6,1-2.4c0.9-2.4,2.1-4.7,3.5-6.8
			c1.1-1.5,2.2-2.9,3.5-4.2c7.3-8.4,7.7-7.4,10-9.7c0.3-0.4,0.7-0.6,1.2-0.8c0.3-0.1,0.5-0.1,0.8-0.1c0.2,0,0.3,0,0.5,0
			c0.1,0,0.2,0,0.3,0c1.6,0,4-1.5,4.4-1.7c5.1-3,25.3-7.2,30.5-7.2h0.1c0.1,0,0.2,0,0.3,0c1.1,0,2.2-0.1,3.4-0.1c0.6,0,1,0,1.4,0
			c0.6,0,1-0.1,1.5-0.3c0.8-0.4,0.9-0.9,1.9-1.9c0.9-0.9,2-1.8,3.1-2.4c1.1-0.7,2.4-1.1,3.6-1.2c0.1,0,0.2,0,0.2,0
			c1.7,0,3.4,0.5,4.8,1.5c4.7,2.7,7,4,9.2,5.9c5.1,4.5,11.7,5.6,18.1,6.6c2.8,0.4,5.5,0.6,8.3,0.6c6.2,0,12.3-1,18.2-3
			c3-1.1,6.1-2.1,9.2-2.9c2.4-0.5,6.2-0.8,13.8-1.4c0.3,0,1.6-0.1,3.2-0.1c2.5,0,5.8,0.2,8.4,1.1c1.1,0.3,2,0.9,2.7,1.8
			c0.7,1.1,0.3,1.7,1,3.5c0.4,1.1,1,2.1,1.9,2.9c0.9,0.7,2.1,1.2,3.2,1.4c0.6,0.1,1.1,0.1,1.5,0.1c0.8,0,1.5-0.1,2.2-0.1
			c0.6,0,1.2,0.1,1.9,0.4c0.5,0.2,1,0.5,1.5,0.8c1.6,1,3,2.3,4,3.9c2,3,5.5,5,11,11c9.3,10.1,16.9,23.4,17.2,24.7
			c0.1,0.3,0.3,0.6,0.5,0.9c0.1,0.1,0.4,0.3,1.1,0.3c0.4,0,0.7,0,1,0c0.5,0,0.8-0.1,1-0.3c0.2-0.3,0.3-0.6,0.3-1
			c-0.1-0.5-0.3-0.9-0.6-1.2c-2.5-2.6-3.6-6.3-5.8-9.3c-9.2-12.5-10.3-14.6-14.7-19c-1.3-1.5-2.8-2.9-4.3-4.1
			c-0.4-0.2-0.7-0.6-0.9-1s-0.2-1,0.1-1.4c0.3-0.2,0.6-0.4,1-0.4c0.1,0,0.1,0,0.2,0c1.3,0.2,2.5,0.8,3.4,1.7
			c8,8.2,12,12.3,13.3,14.1c0,0,3.5,4.8,10,15.2c0.4,0.6,0.8,1.2,1.2,1.9c0.2,0.6,0.5,1.1,0.9,1.5c0.2,0.2,0.5,0.4,0.8,0.5
			c0.4,0.3,1,0.5,1.5,0.5c0.1,0,0.3,0,0.4,0c0.8-0.3,1-1.6,1-2.3c-0.1-0.6-0.3-1.2-0.7-1.7c-0.3-0.4-0.7-0.8-1.2-1
			c-1.9-1.1-4.3-6.2-5.2-8c-0.3-0.6-1.7-2.7-4.6-7.1c-4.4-6.4-9.7-12.2-15.7-17.2c-5.7-4.9-11.7-8.8-13.2-9.1
			c-0.5-0.1-1-0.3-1.4-0.7c-0.4-0.4-0.6-0.9-0.7-1.5c0-0.9,0.7-1.5,1.9-2.3c1-0.9,2.1-1.5,3.4-1.9c0.8-0.2,1.5-0.3,2.3-0.3
			s1.6,0.1,2.3,0.3c5.8,1.3,5.9,0.2,15.9,2.5c9.7,2.3,12.5,4.1,15.9,4.9c0.8,0.2,1.6,0.5,2.3,1c0.7,0.4,1.3,1,1.8,1.6
			c0.5,0.9,0.9,1.8,1.1,2.8c0.2,0.8,0.2,0.9,0.4,1.4c0.4,1.2,1.2,2.2,2.2,3c10.3,8.6,15.6,11.3,17.2,13.4c0.2,0.2,2,2.1,3.1,2.4
			c0.2,0,0.4,0.1,0.6,0.1c0.3,0,0.6,0,0.8-0.1c1-0.3,0.5-0.3,1.1-1s0.3-0.3,0.6-1.2c0.2-0.7,0.5-0.3,0.1-1.5c-0.3-1-0.4-0.9-1.3-1.6
			c-0.7-0.4-1.3-1.1-1.6-1.8c-0.5-1.1-1-2-1.6-3.2s-0.7-1.1-1.7-3.2c-0.7-1.6-1.5-2.8-1.6-3c-1.8-3-0.3-4.4-1.8-6.9
			c-1-1.5-2.3-2.9-3.6-4.1c-0.8-0.7-1.4-1.2-1.5-2.1c-0.1-1.3,1.2-2.3,1.6-2.7c0.9-0.6,1.8-1.1,2.9-1.4c1-0.4,2-2.1,3.7-4.1
			c1.3-1.6,1.9-3,3.5-4.7c0.4-0.4,2-1.1,1.7-1.9c-0.1-0.7-0.6-1.2-1.3-1.5c-0.1,0-0.2,0-0.3,0c-0.3,0-0.8,0.1-1.6,0.6
			c-1,0.7-1.9,1.7-2.6,2.8c-1.4,1.8-2.1,3-2.4,3l0,0c-0.3-0.1,0.1-0.9-0.4-1.6c-0.3-0.4-0.8-0.5-1.2-0.5c-0.2,0-0.4,0-0.6,0.1
			c-0.8,0.4-0.9,1.5-1,2.2c-0.1,1.2,0.3,1.5,0.1,2.2c-0.4,1-1.7,1.8-2.7,1.8c-0.3,0-0.5-0.1-0.7-0.2s-0.3-0.3-0.5-1.1
			c-0.4-1.2-0.6-2.4-0.6-3.6c0-1.4,0.4-1.9,0-2.7c-0.2-0.4-0.5-0.8-1-0.9c-0.1,0-0.2,0-0.3,0c-0.4,0-0.8,0.2-1,0.5
			c-0.5,0.5-0.1,1.2-0.4,1.4c0,0,0,0-0.1,0c-0.4,0-1.1-1.1-1.7-1.9c-1.1-1.6-2.5-3.1-4.1-4.2c-0.7-0.5-1.6-1.1-2.4-1.1
			c-0.2,0-0.4,0-0.6,0.1c-0.4,0.2-0.7,0.6-0.8,1c-0.3,0.9,0.8,1.2,1.5,1.7c0.8,0.6,1.6,1.3,2.3,2c1.2,1,2.3,2.2,3.2,3.4
			c0.7,0.9,1.3,1.9,1.6,3c0.6,1.4,1.1,1.9,0.9,2.4c-0.3,0.8-1.6,1-3.7,1c0.2-0.6,0.2-1.3,0-1.9s-0.5-1.1-1-1.5
			c-0.8-0.7-1.7-1.4-2.7-2.1c-0.5-0.4-0.9-0.8-1.2-1.3c-0.5-0.8-0.2-1-0.7-1.6c-0.5-0.7-0.9-0.4-3.2-1.5c-0.5-0.2-0.9-0.4-1.3-0.7
			c-0.5-0.4-0.6-0.7-1-0.7c-0.3,0-0.5,0.2-0.6,0.5c-0.1,0.5,0.3,0.9,0.8,1.5c0.2,0.3,0.7,1.1,1.6,2.8c0.8,1.4,1,2,1.3,2.7
			c0.7,1.2,1.7,2.5,4.7,3.7c-1.5-0.2-3.1-0.4-4.9-0.7c-7.8-1.3-13.6-2.8-14.6-3.1c-12.4-3.4-16.2-5.8-18.2-7.3
			c-1.5-1.1-2.9-2.3-4.2-3.6c-3.5-3.7-3.6-6-6.2-9.4c-1.6-2-3.7-3.4-7.8-6.2c-5.4-3.6-8.2-5.5-12-5.7c-0.2,0-0.3,0-0.4,0
			c-0.6,0-0.8,0.2-5.9,0.5c-4.5,0.3-12.6,1.2-16.1,1.6c-1.9,0.2-3,0.2-4.1,0.2c-1.7,0-3.2-0.2-7.4-0.2c-0.9,0-1.8,0-2.5,0
			c-3.3,0-4.6,0.1-5.9,0.1c-0.6,0-1.2,0-1.9-0.1c-2.1-0.2-3.5-2.2-6.2-4.2c-3.2-2.3-4.7-3.3-12-4.2
			C121.9,25.3,119.7,25.1,117.6,25.1L117.6,25.1z"/>
	</g>
</g>
</svg>
