<?xml version="1.0" encoding="UTF-8"?>
<svg id="Layer_1" data-name="Layer 1" xmlns="http://www.w3.org/2000/svg" viewBox="0 0 75 28.5">
  <defs>
    <style>
      .cls-1 {
        fill: #151515;
      }
    </style>
  </defs>
  <g id="hoof">
    <path class="cls-1" d="m14.84,2.06h0m32.95,1.28h0m-29.49,3.37h0m52.37,3.37h0m3.74.34h0M28.2,0c-1.28,0-2.57.2-3.83.6-1.23.34-1.94.54-2.66,1.2-.49.43-.63.74-1.2,1.03-.37.17-.94.23-1.94.29-.54.03-.94.06-1.23.06-.23,0-.43-.03-.54-.06-.77-.31-.71-.86-1.48-1.2-.29-.11-.6-.17-.86-.17-.57,0-1.06.2-1.06.31,0,.09.26.09.77.37.34.2.69.43,1,.71.69.54.57.51.8.66.4.2.83.31,1.28.31.09,0,.2,0,.29-.03.57-.03.91-.17,1.17-.17.11,0,.2.03.31.11.14.11.23.29.23.49-.03.23-.31.37-.63.51-.46.2-.91.46-1.34.74-.43.37-.26.6-.89,1.77-.17.4-.43.74-.71,1.09-.37.37-.83.57-1.74.97-1.23.51-1.34.4-1.88.77-.23.17-.49.29-.77.37-.26.09-.51.11-.77.11h-.43c-1.37,0-1.86.14-2.28.14-.2,0-.37-.03-.6-.11-.17-.09-.37-.11-.54-.11-.11,0-.23.03-.34.06-.2.09-.37.2-.51.37-.37.46-.71.94-.97,1.48-.46.8-1.14,1.48-1.97,1.94-.14.09-1.26.66-1.54,1.09-.06.11-.11.23-.14.37-.03.23.03.29,0,.46,0,.06-.06.2-.54.57-.43.34-.57.34-.63.54-.03.17-.03.34,0,.49,0,.31.03.37.09.4.06.03.11.06.17.06.14,0,.34-.09.34-.09.26-.14.43-.34.54-.6.03-.03.46-.51,1.37-1.46,3.08-3.37,3.68-3.63,3.88-4,.06-.11.14-.2.26-.23h.03c.11,0,.26.06.34.14.17.14.37.17.66.17.23,0,.51-.03.83-.06,1.74-.14,1.71.03,2.48-.17.4-.11.77-.23,1.14-.4.51-.29,1.06-.49,1.63-.63.17-.03.31-.06.4-.06.14,0,.23.03.31.11.11.14.14.37.09.54-.11.23-.31.37-.54.46-1.11.43-4.28,1.46-4.37,1.48-.26.09-.51.17-.77.31s-.29.23-.49.29c-.09.03-.2.03-.29.03-.17,0-.31-.03-.46-.09-.17-.06-.23-.11-.34-.11-.14.03-.31.09-.4.2-.34.31-.6.66-.83,1.06-.66,1.37-2.17,2.4-2.26,2.46-.34.17-.6.43-.77.77-.09.26-.17.54-.29.8-.11.2-.17.23-.34.54-.11.2-.11.26-.26.49-.11.29-.29.57-.46.83-.26.31-.46.34-.54.63-.03.11-.06.23-.06.34-.03.17,0,.31.06.46s.14.23.29.29c.06,0,.09.03.14.03.17,0,.34-.06.46-.2.14-.11.23-.29.29-.46.11-.23.2-.46.29-.69.26-.69.6-1.34,1-1.94.31-.43.63-.83,1-1.2,2.08-2.4,2.2-2.11,2.86-2.77.09-.11.2-.17.34-.23.09-.03.14-.03.23-.03h.23c.46,0,1.14-.43,1.26-.49,1.46-.86,7.22-2.06,8.71-2.06h.11c.31,0,.63-.03.97-.03h.4c.17,0,.29-.03.43-.09.23-.11.26-.26.54-.54.26-.26.57-.51.89-.69.31-.2.69-.31,1.03-.34h.06c.49,0,.97.14,1.37.43,1.34.77,2,1.14,2.63,1.68,1.46,1.28,3.34,1.6,5.17,1.88.8.11,1.57.17,2.37.17,1.77,0,3.51-.29,5.2-.86.86-.31,1.74-.6,2.63-.83.69-.14,1.77-.23,3.94-.4.09,0,.46-.03.91-.03.71,0,1.66.06,2.4.31.31.09.57.26.77.51.2.31.09.49.29,1,.11.31.29.6.54.83.26.2.6.34.91.4.17.03.31.03.43.03.23,0,.43-.03.63-.03.17,0,.34.03.54.11.14.06.29.14.43.23.46.29.86.66,1.14,1.11.57.86,1.57,1.43,3.14,3.14,2.66,2.88,4.83,6.68,4.91,7.05.03.09.09.17.14.26.03.03.11.09.31.09h.29c.14,0,.23-.03.29-.09.06-.09.09-.17.09-.29-.03-.14-.09-.26-.17-.34-.71-.74-1.03-1.8-1.66-2.66-2.63-3.57-2.94-4.17-4.2-5.43-.37-.43-.8-.83-1.23-1.17-.11-.06-.2-.17-.26-.29s-.06-.29.03-.4c.09-.06.17-.11.29-.11h.06c.37.06.71.23.97.49,2.28,2.34,3.43,3.51,3.8,4.03,0,0,1,1.37,2.86,4.34.11.17.23.34.34.54.06.17.14.31.26.43.06.06.14.11.23.14.11.09.29.14.43.14h.11c.23-.09.29-.46.29-.66-.03-.17-.09-.34-.2-.49-.09-.11-.2-.23-.34-.29-.54-.31-1.23-1.77-1.48-2.28-.09-.17-.49-.77-1.31-2.03-1.26-1.83-2.77-3.48-4.48-4.91-1.63-1.4-3.34-2.51-3.77-2.6-.14-.03-.29-.09-.4-.2-.11-.11-.17-.26-.2-.43,0-.26.2-.43.54-.66.29-.26.6-.43.97-.54.23-.06.43-.09.66-.09s.46.03.66.09c1.66.37,1.68.06,4.54.71,2.77.66,3.57,1.17,4.54,1.4.23.06.46.14.66.29.2.11.37.29.51.46.14.26.26.51.31.8.06.23.06.26.11.4.11.34.34.63.63.86,2.94,2.46,4.45,3.23,4.91,3.83.06.06.57.6.89.69.06,0,.11.03.17.03.09,0,.17,0,.23-.03.29-.09.14-.09.31-.29s.09-.09.17-.34c.06-.2.14-.09.03-.43-.09-.29-.11-.26-.37-.46-.2-.11-.37-.31-.46-.51-.14-.31-.29-.57-.46-.91s-.2-.31-.49-.91c-.2-.46-.43-.8-.46-.86-.51-.86-.09-1.26-.51-1.97-.29-.43-.66-.83-1.03-1.17-.23-.2-.4-.34-.43-.6-.03-.37.34-.66.46-.77.26-.17.51-.31.83-.4.29-.11.57-.6,1.06-1.17.37-.46.54-.86,1-1.34.11-.11.57-.31.49-.54-.03-.2-.17-.34-.37-.43h-.09c-.09,0-.23.03-.46.17-.29.2-.54.49-.74.8-.4.51-.6.86-.69.86h0c-.09-.03.03-.26-.11-.46-.09-.11-.23-.14-.34-.14-.06,0-.11,0-.17.03-.23.11-.26.43-.29.63-.03.34.09.43.03.63-.11.29-.49.51-.77.51-.09,0-.14-.03-.2-.06s-.09-.09-.14-.31c-.11-.34-.17-.69-.17-1.03,0-.4.11-.54,0-.77-.06-.11-.14-.23-.29-.26h-.09c-.11,0-.23.06-.29.14-.14.14-.03.34-.11.4h-.03c-.11,0-.31-.31-.49-.54-.31-.46-.71-.89-1.17-1.2-.2-.14-.46-.31-.69-.31-.06,0-.11,0-.17.03-.11.06-.2.17-.23.29-.09.26.23.34.43.49.23.17.46.37.66.57.34.29.66.63.91.97.2.26.37.54.46.86.17.4.31.54.26.69-.09.23-.46.29-1.06.29.06-.17.06-.37,0-.54s-.14-.31-.29-.43c-.23-.2-.49-.4-.77-.6-.14-.11-.26-.23-.34-.37-.14-.23-.06-.29-.2-.46-.14-.2-.26-.11-.91-.43-.14-.06-.26-.11-.37-.2-.14-.11-.17-.2-.29-.2-.09,0-.14.06-.17.14-.03.14.09.26.23.43.06.09.2.31.46.8.23.4.29.57.37.77.2.34.49.71,1.34,1.06-.43-.06-.89-.11-1.4-.2-2.23-.37-3.88-.8-4.17-.89-3.54-.97-4.63-1.66-5.2-2.08-.43-.31-.83-.66-1.2-1.03-1-1.06-1.03-1.71-1.77-2.68-.46-.57-1.06-.97-2.23-1.77-1.54-1.03-2.34-1.57-3.43-1.63h-.11c-.17,0-.23.06-1.68.14-1.28.09-3.6.34-4.6.46-.54.06-.86.06-1.17.06-.49,0-.91-.06-2.11-.06h-.71c-.94,0-1.31.03-1.68.03-.17,0-.34,0-.54-.03-.6-.06-1-.63-1.77-1.2-.91-.66-1.34-.94-3.43-1.2-.6-.17-1.23-.23-1.83-.23h0Z"/>
  </g>
</svg>